<svg id="visual" viewBox="0 0 900 600" width="900" height="600" xmlns="http://www.w3.org/2000/svg" xmlns:xlink="http://www.w3.org/1999/xlink" version="1.1"><rect x="0" y="0" width="900" height="600" fill="#931C1C"></rect><path d="M0 280L129 198L257 199L386 173L514 172L643 124L771 225L900 209L900 601L771 601L643 601L514 601L386 601L257 601L129 601L0 601Z" fill="#f5730a"></path><path d="M0 285L129 356L257 266L386 344L514 282L643 252L771 266L900 232L900 601L771 601L643 601L514 601L386 601L257 601L129 601L0 601Z" fill="#da5b09"></path><path d="M0 312L129 409L257 322L386 334L514 337L643 356L771 390L900 291L900 601L771 601L643 601L514 601L386 601L257 601L129 601L0 601Z" fill="#be4407"></path><path d="M0 428L129 461L257 364L386 407L514 423L643 434L771 429L900 377L900 601L771 601L643 601L514 601L386 601L257 601L129 601L0 601Z" fill="#a32d04"></path><path d="M0 518L129 454L257 466L386 487L514 458L643 450L771 460L900 462L900 601L771 601L643 601L514 601L386 601L257 601L129 601L0 601Z" fill="#871400"></path></svg>