<svg id="visual" viewBox="0 0 960 540" width="960" height="540" xmlns="http://www.w3.org/2000/svg" xmlns:xlink="http://www.w3.org/1999/xlink" version="1.1"><rect x="0" y="0" width="960" height="540" fill="#001220"></rect><path d="M0 216L22.8 209.2C45.7 202.3 91.3 188.7 137 176.5C182.7 164.3 228.3 153.7 274 159.7C319.7 165.7 365.3 188.3 411.2 186.7C457 185 503 159 548.8 157.8C594.7 156.7 640.3 180.3 686 180.8C731.7 181.3 777.3 158.7 823 155.3C868.7 152 914.3 168 937.2 176L960 184L960 0L937.2 0C914.3 0 868.7 0 823 0C777.3 0 731.7 0 686 0C640.3 0 594.7 0 548.8 0C503 0 457 0 411.2 0C365.3 0 319.7 0 274 0C228.3 0 182.7 0 137 0C91.3 0 45.7 0 22.8 0L0 0Z" fill="#fa7268"></path><path d="M0 84L22.8 90C45.7 96 91.3 108 137 110C182.7 112 228.3 104 274 97.7C319.7 91.3 365.3 86.7 411.2 85.2C457 83.7 503 85.3 548.8 82.3C594.7 79.3 640.3 71.7 686 66C731.7 60.3 777.3 56.7 823 60.7C868.7 64.7 914.3 76.3 937.2 82.2L960 88L960 0L937.2 0C914.3 0 868.7 0 823 0C777.3 0 731.7 0 686 0C640.3 0 594.7 0 548.8 0C503 0 457 0 411.2 0C365.3 0 319.7 0 274 0C228.3 0 182.7 0 137 0C91.3 0 45.7 0 22.8 0L0 0Z" fill="#fa7268"></path></svg>